<svg xmlns="http://www.w3.org/2000/svg" width="82" height="49">
    <path fill="#FFF" fill-rule="evenodd" d="M79.25 15.775c-1.34-1.364-3.305-2.159-5.432-2.148a9.98 9.98 0 0 0-2.181.247 2.612 2.612 0 0 0-1.985 3.116 2.616 2.616 0 0 0 3.12 1.982v-.001c.397-.09.741-.126 1.046-.126.911.014 1.386.282 1.723.609.33.331.535.796.539 1.406-.007.848-.419 2.003-1.904 3.103-1.479 1.091-4.11 2.064-8.28 2.064-3.932.004-9.208-.882-15.952-3.239 6.609-1.827 11.127-3.968 14.173-6.335 3.102-2.409 4.747-5.265 4.751-8.124 0-2.309-1.096-4.308-2.592-5.623C64.766 1.382 62.84.609 60.787.599 58.44.559 55.859 1.8 54.408 4.245a2.61 2.61 0 0 0 .869 3.589 2.617 2.617 0 0 0 3.592-.871c.603-.915 1.138-1.101 1.918-1.139.67-.01 1.475.294 2.018.786.556.502.829 1.065.837 1.719 0 .783-.429 2.18-2.748 4.014-1.933 1.514-5.138 3.192-9.968 4.715.295-.97.454-2 .454-3.066 0-5.817-4.715-10.531-10.541-10.531-5.826 0-10.545 4.714-10.545 10.531 0 1.066.16 2.096.454 3.066-4.83-1.526-8.038-3.201-9.967-4.716-2.323-1.833-2.748-3.23-2.748-4.013.003-.654.28-1.214.833-1.716.543-.495 1.351-.799 2.021-.793.78.043 1.316.228 1.915 1.142a2.621 2.621 0 0 0 3.595.872 2.61 2.61 0 0 0 .869-3.588C25.816 1.8 23.234.561 20.887.599c-2.053.01-3.982.781-5.492 2.107-1.497 1.315-2.592 3.314-2.589 5.623 0 2.86 1.646 5.715 4.752 8.124 3.042 2.367 7.563 4.51 14.172 6.335-6.748 2.357-12.02 3.242-15.956 3.237-4.166.002-6.8-.974-8.279-2.062-1.489-1.1-1.897-2.255-1.904-3.103.003-.608.209-1.071.539-1.406.337-.324.815-.595 1.727-.606.301 0 .648.033 1.046.124a2.617 2.617 0 0 0 3.12-1.982 2.613 2.613 0 0 0-1.986-3.116 10.1 10.1 0 0 0-2.18-.249c-2.131-.009-4.092.786-5.436 2.15-1.351 1.352-2.06 3.2-2.057 5.085-.01 2.677 1.415 5.411 4.046 7.317 2.635 1.92 6.404 3.07 11.364 3.07 5.227-.004 11.829-1.27 20.126-4.424-1.702 6.494-4.042 10.714-6.336 13.251-2.507 2.757-4.879 3.581-6.638 3.583-1.22 0-2.177-.404-2.791-.929-.609-.539-.879-1.129-.886-1.805.004-.606.223-1.407 1.117-2.424a2.61 2.61 0 0 0-.227-3.687 2.614 2.614 0 0 0-3.688.226v-.001c-1.577 1.767-2.436 3.843-2.432 5.886-.004 2.285 1.071 4.369 2.705 5.761 1.639 1.407 3.826 2.195 6.202 2.195h.014c3.457 0 7.248-1.685 10.503-5.31 2.96-3.286 5.542-8.134 7.396-14.988 1.851 6.854 4.432 11.706 7.389 14.988 3.255 3.622 7.046 5.308 10.503 5.308h.01c2.383 0 4.571-.786 6.205-2.193 1.635-1.392 2.709-3.474 2.706-5.761.003-2.043-.851-4.119-2.429-5.886a2.615 2.615 0 0 0-3.691-.222 2.606 2.606 0 0 0-.224 3.684c.894 1.017 1.11 1.818 1.117 2.424-.007.672-.28 1.263-.89 1.803-.61.527-1.567.931-2.79.931-1.759-.004-4.131-.826-6.634-3.583-2.294-2.537-4.634-6.757-6.336-13.251 8.293 3.154 14.895 4.421 20.121 4.427 4.965-.003 8.73-1.153 11.365-3.073 2.631-1.906 4.052-4.641 4.049-7.317 0-1.885-.709-3.733-2.06-5.085zm-43.18 1.494a1.328 1.328 0 1 1 0-2.658c.734 0 1.333.596 1.333 1.332a1.33 1.33 0 0 1-1.333 1.326zm9.531 0a1.325 1.325 0 0 1-1.326-1.326c0-.736.592-1.332 1.326-1.332.737 0 1.337.596 1.337 1.332 0 .733-.6 1.326-1.337 1.326z"/>
</svg>